<svg version="1.2" xmlns="http://www.w3.org/2000/svg" viewBox="0 0 471 287" width="471" height="287">
	<title>&lt;Group&gt;</title>
	<style>
		.s0 { fill: #00a8c1 } 
		.s1 { fill: #005e98 } 
		.s2 { fill: #00243f } 
		.s3 { fill: #002540 } 
	</style>
	<g id="&lt;Group&gt;">
		<g id="&lt;Group&gt;" style="opacity: .6">
			<path id="&lt;Path&gt;" class="s0" d="m245.7 238.6q0 0 0 0c0.9 0 1.8-0.3 2.4-1l12-12c4.4-4.4 10.3-6.8 16.5-6.8h176.1v-6.9c0-1.2-0.4-2.3-1.2-3.2l-24.6-24.5c-5.1-5.1-7.9-12-7.9-19.2v-146.4h-300.9c-5.1 0-10.1 2-13.7 5.6l-79.9 79.9c-3.6 3.7-5.7 8.6-5.7 13.7v32.2c0 3.5 1.4 6.9 3.9 9.4l1.2 1.2c4.4 4.4 6.9 10.4 6.9 16.6v57.5c0 1.8 1.5 3.3 3.3 3.3l69.8 0.3z"/>
		</g>
		<path id="&lt;Path&gt;" class="s0" d="m447.1 186.5h-3.5v-93h3.5z"/>
		<path id="&lt;Path&gt;" class="s0" d="m462.2 201.2h-3.5v-122.4h3.5z"/>
		<path id="&lt;Path&gt;" class="s0" d="m97.9 278.2h-50.9v-3.5h50.9c1.8 0 3.5-0.7 4.8-2l4.1-4.1c2-2 4.6-3.1 7.3-3.1h167v3.5h-167c-1.8 0-3.5 0.8-4.8 2l-4.2 4.2c-1.9 2-4.5 3-7.2 3z"/>
		<path id="&lt;Compound Path&gt;" fill-rule="evenodd" class="s1" d="m440.8 107.3c-2.7 2.7-4.3 6.5-4.3 10.3v47.4c0 2.6 1 5 2.8 6.8l24.6 24.5c4.1 4.1 6.4 9.7 6.4 15.6v56.8c0 9.7-7.8 17.5-17.4 17.5h-164.6c-6.3 0-12.3-2.5-16.8-7l-20.6-20.6c-1.6-1.6-3.7-2.4-5.9-2.4h-19.7-7l21.2-0.1-151.1-0.2c-3.5 0-6.9 1.4-9.4 3.9l-19.4 19.4c-4.5 4.5-10.5 7-16.9 7h-24c-9.6 0-17.4-7.8-17.4-17.5v-150.9c0-9.1 3.3-17.7 9.2-24.4v-24.5l-2.1 2.2c-2.9 2.8-7.7 0.8-7.7-3.2v-63.1c0-2.5 2-4.5 4.5-4.5h63.1c4 0 6 4.8 3.2 7.7l-3.9 3.8h24.4c6.9-6.9 16.3-10.8 26.1-10.8h334.8c9.6 0 17.4 7.8 17.4 17.4v50.3c0 5.9-2.3 11.4-6.4 15.5zm-8.9 72c-3.9-3.8-6-8.9-6-14.3v-147.5c0-3.3-2.6-5.9-5.9-5.9h-301.9c-7.1 0-13.7 2.7-18.7 7.7l-79.9 79.9c-5 4.9-7.7 11.7-7.7 18.7v35c0 3.6 1.4 7 3.9 9.5l3.2 3.2c3.1 3.1 4.8 7.3 4.8 11.6v57.5c0 5.7 4.6 10.4 10.4 10.4l53.5 0.3 158.1 0.3c2.7 0 5.4-1.1 7.3-3.1l12-12c3.1-3 7.2-4.8 11.6-4.8h177.2c3.3 0 5.9-2.6 5.9-5.9v-8c0-3.1-1.2-5.9-3.3-8.1zm-410.8-120.9v24.4l60.3-60.4h-24.3z"/>
		<path id="Shape 1" class="s1" d="m117-127"/>
		<path id="&lt;Path&gt;" class="s2" d="m311.2 276.5h-11c-1 0-1.9-0.4-2.5-1.1l-30.7-34c-1.9-2.2-0.4-5.6 2.5-5.6h11c1 0 1.9 0.4 2.6 1.1l30.6 33.9c1.9 2.2 0.4 5.7-2.5 5.7z"/>
		<path id="&lt;Path&gt;" class="s3" d="m339.2 276.5h-11c-0.9 0-1.8-0.4-2.5-1.1l-30.6-34c-2-2.2-0.4-5.6 2.5-5.6h11c1 0 1.9 0.4 2.5 1.1l30.7 33.9c1.9 2.2 0.4 5.7-2.6 5.7z"/>
		<path id="&lt;Path&gt;" class="s3" d="m367.3 276.5h-11c-0.9 0-1.8-0.4-2.5-1.1l-30.6-34c-2-2.2-0.4-5.6 2.5-5.6h11c1 0 1.9 0.4 2.5 1.1l30.6 33.9c2 2.2 0.5 5.7-2.5 5.7z"/>
		<path id="&lt;Path&gt;" class="s3" d="m395.4 276.5h-11c-1 0-1.9-0.4-2.5-1.1l-30.6-34c-2-2.2-0.5-5.6 2.5-5.6h11c0.9 0 1.9 0.4 2.5 1.1l30.6 33.9c2 2.2 0.4 5.7-2.5 5.7z"/>
		<path id="&lt;Path&gt;" class="s3" d="m423.5 276.5h-11c-1 0-1.9-0.4-2.5-1.1l-30.7-34c-1.9-2.2-0.4-5.6 2.6-5.6h11c0.9 0 1.8 0.4 2.5 1.1l30.6 33.9c2 2.2 0.4 5.7-2.5 5.7z"/>
	</g>
</svg>